# xmcd
#
# Track frame offsets: 
#        150
#        21315
#        49055
#        72540
#        95330
#        121922
#        143108
#        167337
#        189556
#        206510
#
# Disc length: 3061 seconds
#
# Revision: 0
# Processed by: cddbd v1.5.2PL0 Copyright (c) Steve Scherf et al.
# Submitted via: ExactAudioCopy v0.99pb4
#
DISCID=890bf30a
DTITLE=Fessor - Fessor And His New Generation Stompers
DYEAR=2009
DGENRE=Jazz
TTITLE0=A Good Year Fir The Blues
TTITLE1=High On A Open Mike
TTITLE2=Santa Claus Blues
TTITLE3=Jumpin' with Mc Shann
TTITLE4=I Got It Bad
TTITLE5=In A Little Spanish Town
TTITLE6=I Cover The Waterfront
TTITLE7=Let's Fall In Love
TTITLE8=El Domingo
TTITLE9=I Can't Believe You're In Love With Me
EXTD=
EXTT0=
EXTT1=
EXTT2=
EXTT3=
EXTT4=
EXTT5=
EXTT6=
EXTT7=
EXTT8=
EXTT9=
PLAYORDER=
